<svg version="1.1" id="Layer_1" xmlns="http://www.w3.org/2000/svg" xmlns:xlink="http://www.w3.org/1999/xlink" x="0px" y="0px"
	 width="100%" viewBox="0 0 1792 1024" enable-background="new 0 0 1792 1024" xml:space="preserve">
<path fill="none" opacity="1.000000" stroke="#000000" stroke-linecap="round" stroke-linejoin="round" stroke-width="6.000000"
	d="
M914.500000,867.000000 
	C911.676941,870.369263 907.498474,869.446716 903.984131,869.867188 
	C887.619141,871.824646 871.299622,874.048645 854.981750,876.371765 
	C841.237183,878.328491 827.334045,879.174561 813.498596,880.485413 
	C812.342285,880.594971 810.873047,880.043335 810.047607,880.574097 
	C804.727295,883.994995 799.338257,880.994385 794.000000,880.998962 
	C788.500000,881.003662 782.995300,881.146729 777.500916,880.971375 
	C763.229919,880.516052 749.134888,878.392944 734.969482,876.765747 
	C715.708252,874.553162 697.044067,869.592468 678.024414,866.356384 
	C668.315857,864.704590 658.746338,862.158569 649.016113,860.410339 
	C638.564331,858.532349 628.073242,856.957275 617.496521,856.603577 
	C604.511047,856.169312 591.454468,855.817139 578.511963,856.679626 
	C563.668274,857.668945 549.034058,860.400146 534.458801,863.824585 
	C503.207794,871.166870 473.848999,883.526489 444.523041,896.053955 
	C431.220734,901.736450 418.187561,908.046387 404.995361,913.989685 
	C382.345520,924.193726 359.669434,934.339478 336.999207,944.498230 
	C315.398590,954.177612 293.506195,963.072815 271.031097,970.592957 
	C252.116074,976.921997 232.923752,982.055664 213.521439,986.591675 
	C203.709122,988.885681 193.907974,991.172119 184.000000,993.000000 
"/>
<path fill="none" opacity="1.000000" stroke="#000000" stroke-linecap="round" stroke-linejoin="round" stroke-width="6.000000"
	d="
M877.000000,236.000000 
	C883.429810,241.925873 891.129639,245.947632 898.442566,250.590500 
	C907.737244,256.491547 916.897766,262.607941 926.515320,267.972565 
	C937.026672,273.835754 947.997864,278.909760 960.013733,280.388214 
	C980.736023,282.937897 1001.254883,283.147552 1020.078857,271.628906 
	C1022.167847,270.350677 1023.848083,268.632782 1025.882446,267.318085 
	C1030.411499,264.391144 1030.037720,260.379150 1025.491943,256.008331 
	C1014.427429,245.369400 1001.364868,237.706970 987.465149,231.579025 
	C969.058655,223.464172 949.695984,219.394547 929.500671,220.022202 
	C910.851440,220.601852 892.939209,224.020782 877.005676,234.508667 
	C875.962036,235.195648 874.622131,235.465698 874.060364,234.466064 
	C869.937134,227.128433 861.389771,226.177170 855.578491,221.404449 
	C851.049805,217.685104 846.644226,213.703827 842.955261,209.035339 
	C841.916016,207.720200 841.555298,206.118057 842.133606,205.074020 
	C842.802124,203.867279 844.666321,204.613419 845.989014,204.423508 
	C848.201660,204.105789 849.410828,205.721725 850.976135,206.545364 
	C857.494751,209.975571 861.667542,215.837311 865.986450,221.510330 
	C867.135132,223.019272 866.229858,224.843674 866.500000,226.500000 
"/>
<path fill="none" opacity="1.000000" stroke="#000000" stroke-linecap="round" stroke-linejoin="round" stroke-width="6.000000"
	d="
M1097.500000,870.500000 
	C1097.601440,872.797119 1099.428833,872.095520 1100.492432,871.946350 
	C1114.170532,870.027466 1127.833496,868.000977 1141.499878,865.999573 
	C1150.808716,864.636353 1160.201660,863.763245 1169.474121,862.332092 
	C1186.923340,859.638916 1204.489258,860.019592 1221.996338,858.941345 
	C1234.336182,858.181213 1246.673950,858.395508 1258.998291,858.603394 
	C1270.866943,858.803650 1282.689453,860.108582 1294.522217,861.273987 
	C1304.688599,862.275208 1314.862061,863.414368 1324.976074,864.690125 
	C1336.821777,866.184265 1348.711792,867.391113 1360.521118,869.374573 
	C1390.094727,874.341675 1418.836548,882.388489 1447.545532,890.845581 
	C1466.161865,896.329529 1484.491943,902.882385 1503.506592,906.969238 
	C1515.137451,909.469055 1526.816895,911.756226 1538.517212,913.906494 
	C1540.338989,914.241272 1541.815796,914.622864 1543.000000,916.000000 
"/>
<path fill="none" opacity="1.000000" stroke="#000000" stroke-linecap="round" stroke-linejoin="round" stroke-width="6.000000"
	d="
M413.000000,484.000000 
	C410.287140,492.536896 406.440521,500.442657 401.636383,508.085724 
	C394.229736,519.869019 387.795685,532.229431 379.592041,543.566589 
	C371.571686,554.650330 362.638458,564.860779 352.990845,574.490845 
	C337.567444,589.886292 320.960815,604.024963 302.377533,615.298096 
	C282.612976,627.287903 261.668274,637.202881 240.019119,645.549622 
	C215.849686,654.868042 191.244858,662.548828 166.056442,668.729980 
	C147.750061,673.222351 129.220306,676.654663 110.942543,681.272583 
	C102.963943,683.288452 94.746048,684.950867 86.494164,685.951904 
	C84.905823,686.144592 83.997093,687.036560 83.000000,688.000000 
"/>
<path fill="none" opacity="1.000000" stroke="#000000" stroke-linecap="round" stroke-linejoin="round" stroke-width="6.000000"
	d="
M824.000000,503.000000 
	C826.129761,504.079987 828.535217,504.299744 830.608154,505.855896 
	C832.046387,506.935577 834.104248,507.436615 836.519653,507.203217 
	C842.225769,506.651825 846.831787,510.386230 851.436768,513.106995 
	C858.181641,517.092163 863.929993,522.400757 869.844421,527.608887 
	C876.459595,533.433899 884.489807,538.132568 892.386292,542.696716 
	C909.109497,552.362488 926.995972,554.400940 945.484070,552.355957 
	C963.297119,550.385742 978.883301,542.593689 992.470032,530.965027 
	C997.025452,527.066101 997.187866,523.419006 992.965027,519.033691 
	C980.696350,506.292969 965.872192,497.580353 948.461182,494.737701 
	C936.878052,492.846558 925.588867,496.604309 915.019958,501.542755 
	C902.676636,507.310303 891.977173,515.797546 880.525513,523.040344 
	C877.992065,524.642700 874.842712,525.347351 873.000000,528.000000 
"/>
<path fill="none" opacity="1.000000" stroke="#000000" stroke-linecap="round" stroke-linejoin="round" stroke-width="6.000000"
	d="
M1249.500000,308.500000 
	C1255.106812,309.740692 1260.478394,312.337921 1266.517578,311.084503 
	C1267.729492,310.832947 1269.437256,311.302612 1270.455688,312.059631 
	C1276.629150,316.648315 1283.856201,319.822052 1287.802856,327.341064 
	C1289.032837,329.684540 1292.064331,332.131042 1295.341309,333.809784 
	C1299.590576,335.986542 1303.622192,338.800507 1307.962402,341.071777 
	C1324.136475,349.535736 1341.172607,354.353912 1359.497314,353.445709 
	C1378.774414,352.490265 1395.759033,345.445068 1410.482910,332.979797 
	C1411.282227,332.303131 1411.833374,331.333282 1412.500000,330.500031 
	C1415.877319,326.279083 1416.077393,324.339081 1412.457031,321.047241 
	C1405.598389,314.811066 1397.517334,310.614044 1388.491211,308.537964 
	C1370.987183,304.511810 1354.437622,307.728729 1337.920898,314.301331 
	C1325.265381,319.337433 1313.313721,325.897156 1300.520020,330.555054 
	C1299.369263,330.974091 1298.500000,332.166656 1297.500000,332.999969 
"/>
<path fill="none" opacity="1.000000" stroke="#000000" stroke-linecap="round" stroke-linejoin="round" stroke-width="6.000000"
	d="
M1593.500000,708.000000 
	C1591.087769,710.763428 1587.514893,710.355774 1584.480591,710.890015 
	C1568.021362,713.788208 1551.568970,716.937073 1534.980713,718.831360 
	C1518.161011,720.752136 1501.421387,723.378723 1484.507690,724.605713 
	C1473.966431,725.370422 1463.532593,727.660583 1452.990479,728.356567 
	C1443.098022,729.009705 1433.322266,730.384216 1423.489990,731.403198 
	C1411.662720,732.628967 1400.072021,734.883240 1388.487549,737.443848 
	C1373.557617,740.744019 1358.624268,744.061462 1344.018311,748.559387 
	C1307.991821,759.653687 1272.548096,772.481140 1236.979370,784.941040 
	C1213.254883,793.251770 1189.366333,801.100586 1165.476929,808.929504 
	C1159.464478,810.899902 1153.155151,811.955017 1147.005859,813.523132 
	C1144.698364,814.111511 1142.603271,815.162903 1141.500000,817.500000 
"/>
<path fill="none" opacity="1.000000" stroke="#000000" stroke-linecap="round" stroke-linejoin="round" stroke-width="6.000000"
	d="
M850.500000,321.000000 
	C859.903503,321.364014 868.767151,324.728912 878.004333,325.967560 
	C888.130737,327.325409 898.040955,330.572998 908.513550,329.096161 
	C911.822510,328.629517 914.625122,330.813110 917.563965,332.380035 
	C922.511414,335.017944 926.929077,338.362762 931.478699,341.530609 
	C939.798889,347.323914 948.863281,351.740845 958.549683,354.312958 
	C965.629333,356.192963 973.262390,358.990631 980.441467,354.408295 
	C982.587891,353.038269 984.627197,352.793182 986.982178,352.394806 
	C1004.255615,349.472900 1017.959229,340.901428 1027.514771,326.009460 
	C1029.688110,322.622467 1028.587402,319.947083 1025.995728,317.504486 
	C1020.607727,312.426178 1014.333618,308.765625 1007.501465,305.996368 
	C998.164856,302.211945 988.633484,299.099274 978.498291,298.531006 
	C965.919373,297.825836 954.245972,301.653076 943.598450,307.674133 
	C933.204651,313.551727 923.187012,320.236633 914.000000,328.000000 
"/>
<path fill="none" opacity="1.000000" stroke="#000000" stroke-linecap="round" stroke-linejoin="round" stroke-width="6.000000"
	d="
M614.500000,830.000000 
	C612.900085,831.866821 610.780823,832.010803 608.500183,832.026855 
	C591.999817,832.143372 575.484009,831.940918 559.004578,832.612549 
	C543.150085,833.258850 527.328796,834.775757 511.501770,836.022400 
	C502.492035,836.731995 493.460571,837.374268 484.510956,838.581238 
	C475.334259,839.818848 466.126831,840.865356 456.960083,842.232300 
	C444.664398,844.065796 432.294434,845.646179 420.022247,847.637146 
	C406.993347,849.750793 393.903564,851.525269 380.970062,854.363525 
	C368.943665,857.002808 356.593994,858.142517 344.519836,860.597656 
	C331.676971,863.209167 318.791687,865.695801 305.940979,868.196655 
	C294.983795,870.329041 283.973755,872.344177 272.986298,874.427673 
	C260.814117,876.735901 248.649567,879.078125 236.482254,881.407288 
	C222.224716,884.136597 207.837433,886.192200 193.499008,888.493713 
	C173.955536,891.630676 154.311523,893.510254 134.503952,894.126892 
	C123.828812,894.459229 113.117905,894.984375 102.512817,894.301086 
	C91.002174,893.559448 79.460228,892.972046 67.964691,891.233521 
	C56.120922,889.442383 44.225185,888.034119 32.499523,885.502197 
	C23.247044,883.504333 14.063284,881.258606 4.969559,878.604309 
	C3.029139,878.037903 2.551444,876.948547 2.000000,875.500000 
"/>
<path fill="none" opacity="1.000000" stroke="#000000" stroke-linecap="round" stroke-linejoin="round" stroke-width="6.000000"
	d="
M805.500000,883.000000 
	C808.222595,886.764343 812.787903,887.474548 816.544739,889.413330 
	C834.173706,898.511169 851.924194,907.369507 869.044006,917.425110 
	C869.648315,917.780090 870.452698,917.913025 871.002075,918.498047 
	C882.077393,930.292480 897.814148,933.593201 911.608826,940.275391 
	C924.770630,946.650940 938.861450,951.095886 952.492981,956.517578 
	C970.168945,963.547913 988.178467,969.300659 1006.987000,972.574585 
	C1022.237488,975.229126 1037.546875,976.056763 1052.989746,976.733276 
	C1075.582642,977.723083 1097.352661,974.096313 1119.001709,968.506531 
	C1132.871216,964.925354 1146.115845,959.720947 1159.034424,953.572266 
	C1161.634888,952.334473 1161.745972,949.457642 1163.556641,948.074219 
	C1173.674072,940.344238 1182.505493,930.932068 1193.986084,924.973206 
	C1203.206909,920.187317 1213.726929,922.866577 1220.485718,929.514526 
	C1223.764648,932.739746 1223.436768,935.084412 1218.967773,936.921692 
	C1212.930664,939.403687 1206.790161,941.838196 1200.471802,943.384583 
	C1190.353882,945.860901 1180.500000,949.166809 1170.504150,952.014587 
	C1167.643677,952.829590 1164.833374,953.375549 1162.000000,952.000000 
"/>
<path fill="none" opacity="1.000000" stroke="#000000" stroke-linecap="round" stroke-linejoin="round" stroke-width="6.000000"
	d="
M1045.500000,152.500000 
	C1051.021973,149.338943 1055.592163,153.180237 1059.915161,155.183121 
	C1068.859985,159.327377 1076.709717,165.474060 1082.405273,173.566696 
	C1092.412231,187.785080 1105.775513,198.142944 1120.059814,207.407715 
	C1129.473511,213.513290 1139.777710,218.649643 1150.573364,221.187759 
	C1164.269897,224.407837 1178.402466,224.502411 1192.535522,221.677795 
	C1201.418579,219.902420 1210.184326,218.054230 1218.484009,214.462936 
	C1227.478271,210.570999 1231.108887,209.664612 1223.962280,198.023178 
	C1213.227173,180.536530 1197.968018,168.638168 1177.966797,163.889725 
	C1161.674438,160.021774 1145.015747,160.401901 1128.507446,163.046158 
	C1113.531494,165.444977 1099.703247,171.174438 1086.500000,178.500000 
"/>
<path fill="none" opacity="1.000000" stroke="#000000" stroke-linecap="round" stroke-linejoin="round" stroke-width="6.000000"
	d="
M1792.500000,835.500000 
	C1778.166626,836.663086 1763.832275,835.562805 1749.500366,835.450806 
	C1739.665039,835.373962 1729.796875,835.254822 1720.008179,834.406311 
	C1703.158569,832.945679 1686.308960,831.447449 1669.479980,829.691772 
	C1654.299194,828.107910 1639.110229,826.648376 1624.003906,824.472534 
	C1607.486572,822.093506 1591.010010,819.431580 1574.496460,817.023987 
	C1563.348145,815.398560 1552.172729,813.952820 1540.998413,812.512085 
	C1527.671753,810.793823 1514.362549,808.857788 1500.991089,807.594910 
	C1489.697632,806.528259 1478.315186,806.161682 1467.017090,805.280579 
	C1448.834473,803.862488 1430.669556,803.888550 1412.501221,804.100037 
	C1394.495850,804.309570 1376.479858,805.001770 1358.505737,806.094421 
	C1340.979370,807.159973 1323.523560,809.456848 1305.992920,810.361633 
	C1290.802368,811.145569 1275.682617,812.706970 1260.504395,813.575806 
	C1246.317383,814.387817 1232.183960,816.185425 1217.994263,816.884644 
	C1207.330200,817.410156 1196.663086,817.908569 1185.997437,818.450195 
	C1175.008911,819.008057 1163.995483,819.061340 1153.001587,819.536926 
	C1145.659790,819.854614 1138.533813,817.980164 1130.959839,819.262878 
	C1113.130615,822.282410 1095.528931,826.212524 1078.013062,830.552795 
	C1053.294800,836.677673 1028.577759,842.845703 1004.037964,849.637146 
	C992.000488,852.968445 980.097351,856.841125 967.986694,859.948181 
	C965.552979,860.572571 963.652161,861.737000 962.000000,863.500000 
"/>
<path fill="none" opacity="1.000000" stroke="#000000" stroke-linecap="round" stroke-linejoin="round" stroke-width="6.000000"
	d="
M410.000000,789.500000 
	C401.864136,788.259521 393.796112,786.725220 385.997284,784.007751 
	C385.351044,783.782532 384.534485,783.340149 384.019684,783.548523 
	C374.919983,787.232788 366.004730,783.014404 357.000916,782.916321 
	C350.496246,782.845459 343.682129,780.510254 337.567230,781.815063 
	C325.426239,784.405701 314.126495,780.885498 302.499054,779.507996 
	C298.319580,779.012878 294.472107,780.405945 290.463409,781.343567 
	C284.942841,782.634766 279.163635,782.808777 273.500580,783.504639 
	C257.332275,785.491394 241.132446,787.261658 225.011078,789.577148 
	C212.622116,791.356506 200.371536,794.092468 187.987976,795.918396 
	C177.983231,797.393616 168.094269,799.535278 158.010864,800.602661 
	C150.289566,801.419922 142.695831,803.375793 134.993027,804.450012 
	C124.020470,805.980103 113.017616,807.341370 101.995247,808.452881 
	C90.016212,809.660767 78.016289,810.920288 65.995590,811.386108 
	C53.015083,811.889160 39.996815,811.673279 27.001207,811.434326 
	C19.327944,811.293335 11.666669,810.499939 4.000002,809.999939 
"/>
<path fill="none" opacity="1.000000" stroke="#000000" stroke-linecap="round" stroke-linejoin="round" stroke-width="6.000000"
	d="
M3.000000,701.750000 
	C15.807043,700.069092 28.486898,697.762329 41.014557,694.556885 
	C46.260307,693.214661 52.193241,693.566223 56.877758,691.252563 
	C64.082779,687.694031 71.342796,689.531067 78.509171,689.196167 
	C84.613548,688.910889 90.221565,692.531616 96.479988,693.190186 
	C103.980156,693.979370 111.493111,694.731689 119.000702,695.493103 
	C136.957489,697.314270 155.018967,697.204712 173.018417,698.791016 
	C203.470856,701.474854 231.775635,711.056335 259.489014,723.025452 
	C290.508545,736.422485 320.823975,751.313232 351.031158,766.437805 
	C359.828491,770.842529 368.992188,774.517700 378.005310,778.487915 
	C380.350433,779.520996 382.457214,780.709473 383.000000,783.500000 
"/>
<path fill="none" opacity="1.000000" stroke="#000000" stroke-linecap="round" stroke-linejoin="round" stroke-width="6.000000"
	d="
M877.500000,146.000000 
	C877.916199,143.916306 879.480347,142.492310 881.040466,141.568344 
	C893.514099,134.180984 905.716797,126.430008 919.962952,122.370102 
	C941.466370,116.242035 961.688660,118.410934 980.991028,129.515594 
	C990.882690,135.206299 999.458618,142.593918 1006.387512,151.586655 
	C1010.620422,157.080475 1010.316162,158.778107 1004.024170,162.046570 
	C994.878540,166.797440 985.140259,169.182495 975.004822,170.535904 
	C949.092957,173.995956 924.941406,167.781967 901.506409,157.485458 
	C894.132080,154.245422 886.790588,150.922958 879.520264,147.457520 
	C876.454590,145.996307 873.403625,145.951370 871.080017,148.087036 
	C867.606689,151.279343 864.383911,149.565353 861.002808,148.491074 
	C857.989319,147.533615 855.057373,146.229843 851.983704,145.576752 
	C848.971558,144.936707 847.320984,143.280273 846.500000,140.500000 
"/>
<path fill="none" opacity="1.000000" stroke="#000000" stroke-linecap="round" stroke-linejoin="round" stroke-width="6.000000"
	d="
M295.500000,779.000000 
	C292.314484,774.453674 286.886505,774.610535 282.455322,773.723083 
	C271.343262,771.497803 260.391388,768.456787 249.017517,767.324158 
	C242.016296,766.626953 234.991531,765.947021 227.994019,765.633423 
	C216.849731,765.134033 205.664520,765.360291 194.500504,765.532654 
	C177.628754,765.793152 160.785309,766.475159 143.989243,768.406372 
	C135.049927,769.434204 125.984772,769.311768 117.003151,770.038879 
	C97.992805,771.577759 79.011101,773.475952 59.996540,774.955505 
	C44.346813,776.173218 28.667028,777.005737 12.999695,777.995178 
	C9.835124,778.195007 6.666668,778.333374 3.500001,778.500000 
"/>
<path fill="none" opacity="1.000000" stroke="#000000" stroke-linecap="round" stroke-linejoin="round" stroke-width="6.000000"
	d="
M620.500000,640.000000 
	C626.178772,634.109375 633.685303,634.883118 640.467896,635.750854 
	C647.855469,636.695984 655.249878,638.375427 662.526001,640.406799 
	C673.759949,643.543152 685.195068,645.410034 697.002991,645.122253 
	C705.381836,644.918030 713.615234,643.900879 721.463318,641.385559 
	C742.648804,634.595276 761.278198,623.279358 776.930542,607.431396 
	C783.005432,601.280640 781.883484,596.175720 775.444824,591.577209 
	C761.078186,581.316467 744.976746,574.388855 727.471863,572.812073 
	C714.987549,571.687500 702.512024,574.557617 690.464478,578.901550 
	C671.975403,585.567932 655.827026,596.077942 640.545532,608.058105 
	C631.426758,615.206909 621.573181,621.333191 612.566711,628.582886 
	C607.215637,632.890198 601.268738,636.364563 596.405579,641.408936 
	C589.139832,648.945496 586.294922,658.088013 585.074402,668.009155 
	C584.877441,669.610596 585.177368,671.717712 586.114197,672.910278 
	C587.533508,674.717102 587.497681,676.530945 587.500000,678.500000 
"/>
<path fill="none" opacity="1.000000" stroke="#000000" stroke-linecap="round" stroke-linejoin="round" stroke-width="5.000000"
	d="
M1792.250000,670.500000 
	C1787.313965,670.824097 1783.890869,673.031982 1780.310547,676.820984 
	C1770.527710,687.174377 1760.164307,697.046509 1749.420654,706.408875 
	C1734.219971,719.654968 1716.506714,726.783203 1696.001343,727.091980 
	C1668.437134,727.507019 1642.148315,721.044617 1616.018921,713.435120 
	C1613.753418,712.775330 1611.411865,711.715576 1610.000000,709.500000 
"/>
<path fill="none" opacity="1.000000" stroke="#000000" stroke-linecap="round" stroke-linejoin="round" stroke-width="6.000000"
	d="
M1792.250000,857.500000 
	C1793.008911,859.282959 1791.946899,859.944763 1790.504639,860.511719 
	C1774.084839,866.965942 1757.740601,873.597656 1741.442627,880.361877 
	C1724.842896,887.251404 1708.102417,893.834595 1691.044189,899.630005 
	C1671.989136,906.103760 1652.780151,911.717407 1633.035400,915.676819 
	C1628.093872,916.667786 1622.241699,916.288635 1618.500000,921.000000 
"/>
<path fill="none" opacity="1.000000" stroke="#000000" stroke-linecap="round" stroke-linejoin="round" stroke-width="6.000000"
	d="
M1500.500000,680.500000 
	C1497.556396,678.047119 1494.097412,679.838135 1490.990967,679.695557 
	C1475.450439,678.982056 1459.869019,679.377563 1444.513794,682.078735 
	C1428.562500,684.884888 1413.092896,689.769165 1398.050659,695.630005 
	C1380.295898,702.547791 1362.101318,707.758850 1343.475220,711.372009 
	C1332.946167,713.414490 1322.136719,713.965698 1311.506836,715.546021 
	C1294.486816,718.076233 1277.402344,720.013672 1260.463867,723.314697 
	C1233.202148,728.627686 1206.621216,736.283936 1179.965332,743.878235 
	C1154.549072,751.119446 1129.491333,759.509583 1104.050903,766.680786 
	C1087.503540,771.345154 1070.843750,775.437317 1053.957520,778.244202 
	C1044.602783,779.799072 1034.996582,780.637634 1025.532471,781.771118 
	C1008.700134,783.786987 991.754700,784.639404 974.968628,787.302185 
	C962.696838,789.248718 950.234924,790.070251 937.996033,792.479980 
	C924.013062,795.233154 909.912964,797.451477 896.026428,800.615906 
	C884.037781,803.347900 872.004944,805.859009 860.014404,808.563965 
	C848.780273,811.098328 837.674683,814.198547 826.497864,816.991394 
	C814.340637,820.029297 802.188049,823.093323 789.974304,825.887695 
	C788.357910,826.257446 787.543945,827.118530 786.500000,828.000000 
"/>
<path fill="none" opacity="1.000000" stroke="#000000" stroke-linecap="round" stroke-linejoin="round" stroke-width="6.000000"
	d="
M541.250000,778.500000 
	C543.379272,781.386108 544.767944,781.952759 548.001282,781.509521 
	C560.331360,779.819214 572.688477,778.311707 584.994446,776.462891 
	C599.924622,774.219666 614.909851,772.994568 629.999023,773.528259 
	C645.056763,774.060852 659.818787,776.470154 674.527344,779.882019 
	C702.001526,786.255066 726.430359,799.471985 751.006775,812.487183 
	C757.461731,815.905579 764.008362,819.150574 770.495056,822.509521 
	C772.521851,823.559204 774.854980,824.182739 776.035706,826.481628 
	C776.279480,826.956299 776.602539,827.415771 777.487671,827.570435 
	C791.071289,829.945984 802.459534,838.046448 815.453613,842.146912 
	C831.487427,847.206543 847.624512,851.721313 863.987488,855.553528 
	C878.992676,859.067932 894.238892,860.766663 909.491638,862.570618 
	C911.583008,862.817932 914.017029,862.925842 915.500000,865.000000 
"/>
<path fill="none" opacity="1.000000" stroke="#000000" stroke-linecap="round" stroke-linejoin="round" stroke-width="6.000000"
	d="
M1071.000000,589.000000 
	C1080.992432,584.721008 1091.756226,582.909241 1101.953247,579.365479 
	C1108.449341,577.107971 1115.422241,574.996399 1119.088501,568.046692 
	C1119.617676,567.043701 1121.313477,566.628662 1122.503296,566.006287 
	C1129.077026,562.568237 1135.551514,558.965454 1141.497070,554.496094 
	C1147.816772,549.745544 1147.857300,545.880554 1140.958984,541.565552 
	C1128.542847,533.799072 1115.195801,528.733093 1100.538818,526.268860 
	C1085.015259,523.658875 1072.645630,529.523376 1061.632568,538.659790 
	C1048.485107,549.566895 1039.381348,563.930603 1031.500000,579.000000 
"/>
<path fill="none" opacity="1.000000" stroke="#000000" stroke-linecap="round" stroke-linejoin="round" stroke-width="6.000000"
	d="
M1027.500000,470.500000 
	C1028.913574,474.156097 1032.677856,474.385620 1035.494507,476.009460 
	C1041.512329,479.478668 1047.388184,483.211639 1053.524048,486.454468 
	C1065.068481,492.555695 1077.400757,495.462250 1090.476074,496.744141 
	C1102.866577,497.958832 1114.754883,497.410065 1126.494873,493.484589 
	C1136.032593,490.295502 1144.149292,484.656464 1151.441772,477.936829 
	C1157.066895,472.753510 1162.118408,466.951843 1167.526855,461.526855 
	C1169.357178,459.690979 1171.527710,458.198639 1173.493896,456.492950 
	C1176.945801,453.498260 1176.789673,452.678406 1173.534668,449.464874 
	C1169.229492,445.214691 1163.820068,442.772675 1158.449341,440.626709 
	C1148.694946,436.729187 1138.687744,433.504974 1128.001953,432.961823 
	C1113.508423,432.225006 1100.356445,436.326569 1088.009155,443.515717 
	C1081.291016,447.427368 1074.714355,451.582397 1067.988770,455.480560 
	C1058.057983,461.236481 1047.183594,464.328796 1036.003784,466.519104 
	C1034.143799,466.883484 1032.203613,467.232666 1030.523315,468.048187 
	C1024.580200,470.932861 1022.499817,469.748016 1021.013977,463.496674 
	C1019.881287,458.731201 1006.916748,449.368103 1001.488892,448.576172 
	C1000.703735,448.461609 999.769592,449.368988 998.998535,449.756195 
	C998.938721,453.337036 1001.335571,455.246582 1003.550659,456.933472 
	C1007.367737,459.840332 1011.448914,462.415344 1015.526733,464.957153 
	C1017.027832,465.892853 1018.833313,465.670135 1020.500000,465.000000 
"/>
<path fill="none" opacity="1.000000" stroke="#000000" stroke-linecap="round" stroke-linejoin="round" stroke-width="6.000000"
	d="
M924.000000,438.500000 
	C927.505737,437.519989 931.226868,437.409027 934.538391,435.569031 
	C935.627930,434.963593 937.276855,434.746979 938.483276,435.063660 
	C953.759705,439.072968 968.178284,435.490967 981.928772,429.340729 
	C991.888855,424.885864 1001.397522,419.302887 1008.579163,410.565063 
	C1010.073425,408.747040 1011.276550,407.085999 1010.169250,405.043793 
	C1008.944031,402.784180 1006.957275,401.493073 1004.001648,401.427277 
	C993.575867,401.195190 984.121948,404.433746 975.005371,409.010651 
	C963.267883,414.903381 953.084778,423.340027 941.552979,429.597595 
	C939.906494,430.491058 938.034119,432.040558 938.000000,434.500000 
"/>
<path fill="none" opacity="1.000000" stroke="#000000" stroke-linecap="round" stroke-linejoin="round" stroke-width="6.000000"
	d="
M908.500000,644.500000 
	C908.638123,643.588562 908.447693,642.840881 909.433838,641.928467 
	C921.000488,631.227417 935.209961,629.533569 949.443665,632.290710 
	C965.996948,635.497253 979.890930,630.500122 993.487122,622.478149 
	C997.796265,619.935608 998.075806,618.261292 994.984863,614.512512 
	C989.642578,608.033325 983.024109,603.263611 975.530823,599.439575 
	C961.202332,592.127258 946.752991,585.281433 930.498596,583.513123 
	C918.216553,582.176941 906.261292,583.426575 894.474731,587.425537 
	C880.386230,592.205505 868.440308,600.352295 856.363586,608.805054 
	C838.258606,621.477112 827.416504,639.120300 818.473633,658.487854 
	C818.351624,658.752075 817.833313,658.833313 817.500000,659.000000 
"/>
<path fill="none" opacity="1.000000" stroke="#000000" stroke-linecap="round" stroke-linejoin="round" stroke-width="6.000000"
	d="
M1348.000000,408.500000 
	C1346.037598,403.365570 1341.627319,400.401245 1337.441406,397.587158 
	C1324.877686,389.140778 1310.809814,383.830780 1295.959595,381.794617 
	C1288.030396,380.707397 1279.700439,381.498169 1271.477661,382.258240 
	C1253.395874,383.929626 1238.356934,392.422424 1223.586548,401.638702 
	C1218.598145,404.751282 1212.431396,405.798431 1208.353516,410.626251 
	C1207.535889,411.594116 1205.171631,409.704041 1202.922363,410.847198 
	C1194.838379,414.955872 1186.870728,419.204620 1179.525269,424.534790 
	C1178.179932,425.511017 1177.190430,426.976166 1175.500000,427.500000 
"/>
<path fill="none" opacity="1.000000" stroke="#000000" stroke-linecap="round" stroke-linejoin="round" stroke-width="6.000000"
	d="
M1349.500000,408.500000 
	C1338.049561,418.773590 1324.765991,425.712067 1309.988770,429.708527 
	C1295.548584,433.613800 1280.926758,434.152466 1265.984375,432.656586 
	C1247.743408,430.830475 1231.119751,424.638123 1215.000977,416.498138 
	C1212.399292,415.184265 1209.584351,414.112366 1208.500000,411.000000 
"/>
<path fill="none" opacity="1.000000" stroke="#000000" stroke-linecap="round" stroke-linejoin="round" stroke-width="5.000000"
	d="
M673.500000,216.000000 
	C682.188416,225.258530 692.066040,233.150543 701.976929,241.029007 
	C714.794067,251.217682 728.484619,260.154846 743.576294,266.312988 
	C759.751099,272.913086 776.766541,276.484467 794.502686,274.524231 
	C796.149231,274.342255 797.834717,274.544281 799.499756,274.491882 
	C804.974792,274.319489 807.219910,270.670868 804.470947,266.017151 
	C793.712830,247.804352 779.257263,233.279099 761.020508,222.465424 
	C750.623840,216.300644 739.735779,211.404297 727.995972,208.516388 
	C712.135681,204.614868 696.630249,205.939346 681.501526,212.003845 
	C678.657532,213.143875 675.833313,214.333344 673.000000,215.500015 
"/>
<path fill="none" opacity="1.000000" stroke="#000000" stroke-linecap="round" stroke-linejoin="round" stroke-width="6.000000"
	d="
M1071.000000,365.000000 
	C1077.158936,369.459747 1084.477417,371.339294 1091.541626,373.354218 
	C1105.768433,377.412079 1120.488281,377.647797 1134.979980,375.372803 
	C1160.880615,371.306732 1183.916504,360.676544 1203.483032,342.981262 
	C1204.613525,341.958862 1205.469604,340.638947 1206.505981,339.505493 
	C1208.969116,336.811707 1208.586548,334.241547 1205.981079,332.022156 
	C1201.032471,327.806458 1195.075928,325.373413 1188.982178,323.559998 
	C1161.529297,315.390442 1135.596924,319.461365 1111.559937,334.595215 
	C1097.429321,343.491943 1083.899414,353.324524 1070.894775,363.870239 
	C1068.259521,366.007202 1064.864014,367.519623 1061.858398,369.254791 
	C1051.109009,375.460449 1046.282471,384.872528 1044.496582,396.499481 
	C1044.188721,398.503357 1043.833374,400.500000 1043.500122,402.500000 
"/>
<path fill="none" opacity="1.000000" stroke="#000000" stroke-linecap="round" stroke-linejoin="round" stroke-width="6.000000"
	d="
M679.500000,422.000000 
	C683.310913,420.746796 686.867737,422.040680 690.507446,422.970856 
	C697.602966,424.784119 704.453979,427.248474 710.975220,430.548981 
	C713.183167,431.666473 715.125916,433.184998 716.572754,435.453613 
	C718.738159,438.849030 720.101685,438.684845 723.021179,436.023193 
	C734.022644,425.993439 745.320679,416.240753 760.022461,412.079285 
	C772.005737,408.687256 784.188416,408.766327 796.515503,410.910980 
	C813.933044,413.941254 829.123047,421.688995 843.572144,431.392517 
	C844.337463,431.906494 845.250366,432.377075 845.994629,433.006348 
	C852.516541,438.521301 854.390503,441.192474 844.992188,447.488373 
	C835.234436,454.024994 824.319641,457.888214 812.985229,460.434357 
	C799.316711,463.504852 785.439880,464.677155 771.508606,462.446106 
	C762.891968,461.066254 754.627502,458.196991 747.045959,453.918579 
	C738.675842,449.195221 730.600281,443.932861 723.000000,438.000000 
"/>
<path fill="none" opacity="1.000000" stroke="#000000" stroke-linecap="round" stroke-linejoin="round" stroke-width="6.000000"
	d="
M382.500000,382.500000 
	C386.015228,386.828461 391.496490,387.840302 395.986359,390.522858 
	C410.501648,399.195251 426.448120,404.305084 442.542389,408.849915 
	C448.590698,410.557861 455.134521,410.285095 461.499969,409.999207 
	C473.354401,409.466827 485.162567,408.219604 496.986603,407.323364 
	C513.419739,406.077759 529.737122,406.289398 545.991455,408.561066 
	C572.577148,412.276550 597.097961,421.641479 619.511108,436.483246 
	C625.278809,440.302551 630.233215,445.102325 635.423340,449.588684 
	C639.459412,453.077484 638.989624,456.394775 634.472107,459.458832 
	C628.140686,463.753204 620.760132,465.567108 613.490417,467.463165 
	C601.853333,470.498291 589.954895,470.897186 577.999084,470.529999 
	C575.994690,470.468414 574.120911,470.278900 572.500000,469.000000 
"/>
<path fill="none" opacity="1.000000" stroke="#000000" stroke-linecap="round" stroke-linejoin="round" stroke-width="6.000000"
	d="
M1782.500000,673.000000 
	C1776.599976,669.365234 1771.061890,672.896362 1765.517944,674.083679 
	C1755.507812,676.227539 1745.793213,679.597351 1735.933350,682.252625 
	C1720.628784,686.374268 1705.787720,691.920288 1690.491821,695.969177 
	C1673.416626,700.489014 1656.361084,705.014099 1638.503906,705.616028 
	C1630.509277,705.885437 1622.473022,706.442566 1614.526123,707.255676 
	C1610.737183,707.643372 1607.055542,709.112488 1602.993896,708.842346 
	C1598.127319,708.518616 1594.064331,706.478088 1589.679565,704.670837 
	C1579.483887,700.468140 1568.945801,697.081238 1558.493408,693.519226 
	C1541.057861,687.577209 1523.339233,682.767578 1505.006958,680.445190 
	C1503.239868,680.221313 1501.553101,679.155701 1500.500000,681.500000 
"/>
<path fill="none" opacity="1.000000" stroke="#000000" stroke-linecap="round" stroke-linejoin="round" stroke-width="6.000000"
	d="
M874.500000,924.000000 
	C869.182495,925.974854 864.539856,922.891235 860.065979,921.312927 
	C839.306824,913.989807 818.019287,908.856812 796.501953,904.490417 
	C779.781494,901.097473 762.863708,898.984558 746.022705,896.354797 
	C714.161560,891.379639 682.144714,889.718018 650.004456,890.653992 
	C636.871887,891.036438 623.857544,893.588806 611.003113,896.513550 
	C605.083069,897.860596 599.597595,900.758301 593.500000,901.500000 
"/>
<path fill="none" opacity="1.000000" stroke="#000000" stroke-linecap="round" stroke-linejoin="round" stroke-width="6.000000"
	d="
M333.500000,786.000000 
	C335.271637,788.727478 338.408112,788.623230 341.015442,789.451355 
	C354.982758,793.887695 368.876404,798.643311 383.047150,802.318176 
	C391.317566,804.462769 399.886414,805.693298 408.463440,806.786682 
	C417.645966,807.957336 426.755249,809.033020 436.000000,808.997742 
	C442.702667,808.972107 449.135315,808.587219 455.640289,805.831116 
	C459.365631,804.252747 464.573975,805.569153 468.986786,806.326965 
	C485.402679,809.145996 501.964844,810.666077 518.487610,812.605347 
	C538.872681,814.997925 559.186096,818.036072 579.491821,821.054993 
	C589.705322,822.573547 600.238159,823.475952 609.910034,826.764587 
	C626.589050,832.435852 644.184937,832.185059 661.020630,836.417847 
	C666.124023,837.700989 671.253906,835.129761 676.503418,835.442993 
	C687.493652,836.098755 698.463928,837.187622 709.500305,837.020630 
	C722.545349,836.823242 735.561890,836.067993 748.489258,834.416016 
	C756.713318,833.365112 764.834167,831.504761 772.999146,829.995239 
	C774.387390,829.738586 775.553040,829.051208 776.500000,828.000000 
"/>
<path fill="none" opacity="1.000000" stroke="#000000" stroke-linecap="round" stroke-linejoin="round" stroke-width="6.000000"
	d="
M1355.500000,235.500000 
	C1351.998291,235.413040 1349.557251,237.409775 1346.967041,239.458298 
	C1333.131836,250.399704 1319.483276,261.611877 1304.489014,270.982422 
	C1288.777100,280.801422 1271.811646,287.609680 1253.487305,290.416779 
	C1234.758179,293.285858 1216.490723,291.172577 1198.979248,283.547607 
	C1197.161743,282.756256 1195.462402,282.162018 1194.971680,279.895050 
	C1195.760132,277.016235 1198.558716,275.831177 1200.553223,274.059998 
	C1215.154419,261.094849 1230.944580,249.861069 1250.024536,244.588776 
	C1272.879639,238.273315 1295.014160,240.618378 1315.991821,252.014984 
	C1318.551392,253.405457 1321.000000,254.999985 1323.500000,256.499969 
"/>
<path fill="none" opacity="1.000000" stroke="#000000" stroke-linecap="round" stroke-linejoin="round" stroke-width="6.000000"
	d="
M620.500000,720.500000 
	C620.184509,718.145142 620.619995,715.615845 622.076416,714.072083 
	C634.882812,700.497498 647.328430,686.511597 664.479736,677.959351 
	C681.369385,669.537598 698.958862,664.166931 717.999573,664.521912 
	C725.334290,664.658630 732.301575,666.618530 738.993469,669.515137 
	C748.541382,673.648010 757.899963,678.065125 765.553040,685.445007 
	C768.129822,687.929871 767.930664,689.930786 766.019104,692.514099 
	C759.344421,701.534546 750.183594,707.366089 740.490479,712.481995 
	C727.895813,719.129150 714.425049,723.222656 700.510742,726.052795 
	C696.939087,726.779236 693.345947,725.424866 690.027771,726.130615 
	C678.278198,728.630066 666.386414,730.054016 654.520569,728.804871 
	C644.508789,727.750854 634.199829,727.217041 624.964294,722.063965 
	C620.033020,719.312500 615.002014,721.516663 610.553711,723.613892 
	C603.970581,726.717468 597.204224,728.533691 590.000488,728.456177 
	C581.093811,728.360352 573.153320,725.223999 566.000000,720.000000 
"/>
<path fill="none" opacity="1.000000" stroke="#000000" stroke-linecap="round" stroke-linejoin="round" stroke-width="5.000000"
	d="
M1792.500000,901.500000 
	C1780.369751,905.584839 1767.935059,908.524231 1755.513794,911.556458 
	C1743.590088,914.467224 1731.565552,916.889648 1719.482666,918.895447 
	C1707.562134,920.874146 1695.523438,922.261108 1683.485596,923.339539 
	C1679.912231,923.659607 1676.176880,923.335632 1672.498169,923.403442 
	C1656.834595,923.691895 1641.185181,925.565552 1625.499390,924.006287 
	C1625.004272,923.957031 1624.391235,924.188721 1624.015991,923.972351 
	C1615.217407,918.899353 1605.705200,921.530945 1596.500366,921.578491 
	C1580.056396,921.663330 1563.740356,920.436340 1547.506592,917.956665 
	C1545.875122,917.707520 1544.559570,917.163513 1542.943359,918.427673 
	C1540.976807,919.965820 1538.378052,919.572571 1536.000366,919.488281 
	C1517.080078,918.817505 1498.286255,916.667053 1479.503540,914.469971 
	C1463.653076,912.615906 1447.838989,910.453003 1431.993408,908.555298 
	C1429.845703,908.298035 1427.562378,908.056030 1425.479248,909.469360 
	C1422.555542,911.453003 1419.126221,910.658020 1416.006348,910.417664 
	C1396.493774,908.914124 1376.977905,907.384521 1357.509521,905.405884 
	C1348.120728,904.451660 1338.849854,902.386292 1329.495361,901.032288 
	C1320.376465,899.712402 1311.548096,897.496216 1302.943237,894.145691 
	C1301.191895,893.463806 1299.410034,892.671021 1298.614380,891.426819 
	C1296.001709,887.340881 1292.054565,886.975220 1288.000610,887.037476 
	C1267.333740,887.354675 1246.678101,888.584900 1226.000854,887.970093 
	C1214.829224,887.637878 1203.647217,887.262207 1192.504517,886.439270 
	C1175.320801,885.170044 1158.094971,884.050598 1141.022339,881.828003 
	C1127.037231,880.007324 1112.945312,879.532837 1098.988892,877.579773 
	C1096.945923,877.293884 1095.651367,876.460938 1094.500000,875.000000 
"/>
<path fill="none" opacity="1.000000" stroke="#000000" stroke-linecap="round" stroke-linejoin="round" stroke-width="5.000000"
	d="
M669.000000,839.000000 
	C673.829529,842.844666 679.961426,843.103210 685.535645,844.339111 
	C714.214233,850.697388 742.023804,859.776917 769.496399,870.009583 
	C774.687866,871.943176 779.819397,874.037048 785.006470,875.982727 
	C787.237305,876.819519 789.395752,877.664185 790.500000,880.000000 
"/>
<path fill="none" opacity="1.000000" stroke="#000000" stroke-linecap="round" stroke-linejoin="round" stroke-width="6.000000"
	d="
M491.500000,628.000000 
	C494.975494,627.219360 498.321686,626.286621 499.011444,622.001831 
	C499.094086,621.488342 499.176270,620.781006 499.523132,620.532288 
	C506.924713,615.224426 512.567627,607.562988 521.969116,604.891296 
	C529.455627,602.763794 536.698425,599.749451 543.983826,596.957825 
	C546.761902,595.893433 549.285767,594.121277 552.504089,594.984741 
	C553.993958,595.384460 555.016907,594.153015 555.958374,593.444641 
	C567.690002,584.617798 578.542847,574.934875 586.015076,562.008728 
	C589.668579,555.688599 589.106750,553.088745 582.484802,549.528259 
	C570.457092,543.061157 557.880798,537.413147 544.453552,535.294434 
	C533.605835,533.582764 522.478149,534.831055 511.974976,539.443054 
	C489.041016,549.513367 472.158386,566.755066 456.525696,585.521423 
	C451.362885,591.719116 445.842499,597.770325 441.709320,604.626221 
	C438.438293,610.052002 433.786133,614.185608 430.391571,619.429810 
	C426.527130,625.399963 421.825134,630.827148 417.517609,636.513367 
	C417.216217,636.911255 417.318665,637.668701 416.978027,637.975647 
	C404.820831,648.930420 393.773163,661.252014 378.985840,668.972900 
	C378.262604,669.350464 377.333344,669.333313 376.500000,669.500000 
"/>
<path fill="none" opacity="1.000000" stroke="#000000" stroke-linecap="round" stroke-linejoin="round" stroke-width="6.000000"
	d="
M540.500000,779.500000 
	C524.396301,783.656982 508.092224,786.751953 491.496887,787.957031 
	C473.361237,789.273865 455.178131,789.706848 437.001495,789.408081 
	C429.993378,789.292969 423.081940,787.323853 415.999817,787.492310 
	C413.567627,787.550171 411.005554,787.274536 410.250000,790.500000 
"/>
<path fill="none" opacity="1.000000" stroke="#000000" stroke-linecap="round" stroke-linejoin="round" stroke-width="6.000000"
	d="
M505.000000,447.000000 
	C503.839020,445.034546 502.352570,443.666382 500.015991,442.948029 
	C488.095459,439.283356 475.826050,437.098755 463.525848,438.698669 
	C448.237030,440.687317 435.387390,447.665771 426.431061,460.953552 
	C421.560181,468.180145 417.173828,475.618958 414.096802,483.527649 
	C405.701660,480.730865 397.756165,478.366699 390.018402,475.451172 
	C369.783600,467.826904 348.892212,465.586029 327.507233,467.577515 
	C321.293579,468.156189 315.166656,469.666656 309.000000,470.750000 
"/>
<path fill="none" opacity="1.000000" stroke="#000000" stroke-linecap="round" stroke-linejoin="round" stroke-width="6.000000"
	d="
M1427.500000,908.000000 
	C1425.205688,904.191162 1420.905396,904.431641 1417.467163,903.643433 
	C1402.209595,900.145813 1386.864136,897.007141 1371.492432,894.038879 
	C1350.520508,889.989136 1329.566040,885.642456 1307.999390,886.482788 
	C1304.310913,886.626526 1300.581543,886.409241 1297.500000,889.000000 
"/>
<path fill="none" opacity="1.000000" stroke="#000000" stroke-linecap="round" stroke-linejoin="round" stroke-width="6.000000"
	d="
M866.500000,372.500000 
	C863.458069,372.541931 863.384888,369.427582 862.147278,367.882080 
	C851.129700,354.123444 836.877319,344.907990 819.928711,341.902100 
	C807.615784,339.718384 794.947998,341.404999 782.882751,347.258331 
	C770.715576,353.161072 759.742432,361.210846 747.046204,366.119537 
	C741.079102,368.426605 735.018188,370.480316 728.930237,372.261597 
	C726.313171,373.027313 721.859192,374.313446 720.250000,369.500000 
"/>
<path fill="none" opacity="1.000000" stroke="#000000" stroke-linecap="round" stroke-linejoin="round" stroke-width="6.000000"
	d="
M768.500000,356.000000 
	C774.451843,363.127472 782.710449,366.962921 790.486328,371.523285 
	C804.570862,379.783539 819.709595,383.665863 835.995789,382.443695 
	C844.822449,381.781372 853.524597,380.138458 861.451599,375.909241 
	C862.555847,375.320099 864.714722,375.214722 864.500000,373.000000 
"/>
<path fill="none" opacity="1.000000" stroke="#000000" stroke-linecap="round" stroke-linejoin="round" stroke-width="5.000000"
	d="
M553.000000,467.000000 
	C551.839050,465.034546 550.229919,463.861755 548.036499,462.915344 
	C536.670959,458.011353 524.918823,453.968628 514.195374,447.591858 
	C511.688293,446.100952 507.435699,445.905304 505.714325,447.270294 
	C502.593658,449.744781 499.380859,449.954132 495.997253,450.214203 
	C480.808533,451.381775 467.575073,457.886688 454.477631,464.958588 
	C445.256378,469.937592 437.511536,477.397522 427.489502,480.970551 
	C423.476898,482.401062 419.395386,483.906067 415.000000,482.500000 
"/>
<path fill="none" opacity="1.000000" stroke="#000000" stroke-linecap="round" stroke-linejoin="round" stroke-width="5.000000"
	d="
M1232.500000,936.500000 
	C1233.000000,936.666687 1233.511841,937.007812 1233.998291,936.974731 
	C1250.631226,935.841980 1265.256104,942.021118 1279.492065,949.515015 
	C1292.697632,956.466553 1304.532349,965.659607 1317.517090,972.969604 
	C1323.751221,976.479187 1330.166626,979.666626 1336.500000,983.000000 
"/>
<path fill="none" opacity="1.000000" stroke="#000000" stroke-linecap="round" stroke-linejoin="round" stroke-width="6.000000"
	d="
M819.500000,527.500000 
	C808.545349,538.730652 794.575439,544.532471 779.977234,548.924377 
	C767.475342,552.685547 754.667053,554.912415 741.503052,553.471924 
	C739.206116,553.220581 737.360840,552.456360 735.369019,550.643921 
	C726.991821,543.021118 716.621765,539.671692 705.497803,538.521484 
	C702.512451,538.212830 699.397583,538.583557 696.529724,537.879089 
	C693.834839,537.217163 691.683777,537.619812 689.500000,539.000000 
"/>
<path fill="none" opacity="1.000000" stroke="#000000" stroke-linecap="round" stroke-linejoin="round" stroke-width="6.000000"
	d="
M818.000000,527.500000 
	C817.325623,524.457886 815.273193,522.289551 812.969788,520.539795 
	C799.468872,510.283722 784.266724,503.417267 767.479614,501.699432 
	C747.298950,499.634277 728.214417,504.264740 710.457275,514.425354 
	C701.649292,519.465393 693.402222,525.487610 684.028381,529.565186 
	C682.210449,530.356018 680.798523,532.024597 680.000000,534.000000 
"/>
<path fill="none" opacity="1.000000" stroke="#000000" stroke-linecap="round" stroke-linejoin="round" stroke-width="6.000000"
	d="
M588.000000,675.000000 
	C593.540710,670.343628 596.644165,663.883545 600.463989,657.976746 
	C604.498718,651.737671 609.225403,646.204651 614.937195,641.424988 
	C616.598877,640.034424 618.897949,639.257629 619.886658,640.128662 
	C626.370178,645.840271 635.123352,647.160217 642.003113,651.995544 
	C644.650574,653.856262 647.403198,655.573975 649.984985,657.519897 
	C654.907471,661.229858 654.863098,663.210205 649.478577,666.464539 
	C641.409424,671.341309 632.689209,674.868530 624.041138,678.595398 
	C611.680908,683.921753 599.124634,688.621643 585.984314,691.426392 
	C567.015137,695.475403 548.283142,693.283203 530.030334,687.405884 
	C518.263794,683.617188 507.074554,678.350891 497.000000,671.000000 
"/>
<path fill="none" opacity="1.000000" stroke="#000000" stroke-linecap="round" stroke-linejoin="round" stroke-width="6.000000"
	d="
M477.000000,507.500000 
	C468.112549,504.172943 459.403046,506.040100 451.029785,509.081940 
	C432.923859,515.659424 419.180023,527.867004 407.271667,542.818115 
	C403.416107,547.658875 399.235077,551.934509 397.500000,558.000000 
"/>
<path fill="none" opacity="1.000000" stroke="#000000" stroke-linecap="round" stroke-linejoin="round" stroke-width="6.000000"
	d="
M916.500000,865.500000 
	C930.666687,865.000000 944.833252,864.497803 959.000183,864.004517 
	C959.998962,863.969727 961.237671,863.613647 961.963196,864.059814 
	C969.177795,868.497437 977.370056,866.100708 984.998108,867.510254 
	C994.753357,869.312988 1004.692444,869.456787 1014.520081,870.252075 
	C1028.336426,871.370178 1042.082886,873.460876 1055.999268,873.579712 
	C1065.169556,873.657959 1074.329834,874.590454 1083.501831,874.952148 
	C1086.823486,875.083130 1090.166626,874.666687 1093.500000,874.500000 
"/>
<path fill="none" opacity="1.000000" stroke="#000000" stroke-linecap="round" stroke-linejoin="round" stroke-width="6.000000"
	d="
M608.000000,725.500000 
	C608.334961,729.083984 606.865967,731.863770 604.534668,734.530273 
	C590.352417,750.751648 573.664246,763.568420 554.026306,772.557434 
	C550.025635,774.388733 545.331299,774.707703 542.000000,778.000000 
"/>
<path fill="none" opacity="1.000000" stroke="#000000" stroke-linecap="round" stroke-linejoin="round" stroke-width="6.000000"
	d="
M636.000000,142.000000 
	C637.018799,150.247726 636.431763,158.690079 639.000000,166.750000 
	C634.901733,176.458694 641.813782,183.757965 644.448853,192.016327 
	C645.587769,195.585480 646.537781,199.295227 646.919006,203.008316 
	C647.609314,209.730606 644.587952,214.641525 639.075134,218.604538 
	C634.968628,221.556564 630.382690,223.675674 626.366699,226.830261 
	C623.779358,228.862671 620.851379,230.097931 619.403687,233.458511 
	C618.430298,235.718140 615.871826,236.243668 613.500000,236.500000 
"/>
<path fill="none" opacity="1.000000" stroke="#000000" stroke-linecap="round" stroke-linejoin="round" stroke-width="6.000000"
	d="
M509.500000,610.500000 
	C504.444458,607.611511 499.530884,610.569336 495.066772,611.752075 
	C482.119904,615.182312 469.032623,614.843994 456.012543,614.232849 
	C450.413422,613.970032 444.162781,614.614075 439.000000,611.000000 
"/>
<path fill="none" opacity="1.000000" stroke="#000000" stroke-linecap="round" stroke-linejoin="round" stroke-width="6.000000"
	d="
M855.000000,612.000000 
	C862.296265,618.931641 871.749512,621.045654 881.011047,623.457581 
	C889.458923,625.657715 898.012939,627.447083 906.494202,629.523621 
	C910.404114,630.480835 913.942688,632.206604 916.500000,635.500000 
"/>
<path fill="none" opacity="1.000000" stroke="#000000" stroke-linecap="round" stroke-linejoin="round" stroke-width="6.000000"
	d="
M601.750000,635.500000 
	C592.985291,631.852661 583.725464,631.758728 574.501709,632.053894 
	C558.843018,632.554810 544.165222,636.516357 530.440491,644.396301 
	C521.742432,649.390320 514.154053,655.705261 506.534576,662.041565 
	C503.068695,664.923767 499.073761,667.140137 496.275513,670.907593 
	C481.727020,659.770691 465.834259,652.187134 448.982452,646.552429 
	C444.648590,645.103333 440.592041,642.465576 435.448853,643.803284 
	C433.765625,644.241089 431.945435,641.264282 429.500000,641.500000 
"/>
<path fill="none" opacity="1.000000" stroke="#000000" stroke-linecap="round" stroke-linejoin="round" stroke-width="5.000000"
	d="
M62.000000,688.500000 
	C60.330391,687.199829 58.779938,685.971008 56.520649,685.415955 
	C39.497200,681.233337 23.072762,675.128479 6.474309,669.576782 
	C5.271426,669.174438 4.176452,668.839905 3.250000,668.000000 
"/>
<path fill="none" opacity="1.000000" stroke="#000000" stroke-linecap="round" stroke-linejoin="round" stroke-width="6.000000"
	d="
M684.000000,725.000000 
	C678.638123,721.078247 672.112793,720.830200 665.982666,719.585449 
	C654.258423,717.204956 642.398804,716.804443 630.493408,718.452271 
	C628.431091,718.737732 626.991699,719.816772 625.500000,721.000000 
"/>
<path fill="none" opacity="1.000000" stroke="#000000" stroke-linecap="round" stroke-linejoin="round" stroke-width="6.000000"
	d="
M553.500000,595.500000 
	C554.119995,600.246704 549.872314,602.185303 547.354980,604.329773 
	C534.518738,615.264954 519.085144,621.169495 502.981567,625.430298 
	C501.620911,625.790344 500.000000,625.166687 498.500000,625.000000 
"/>
<path fill="none" opacity="1.000000" stroke="#000000" stroke-linecap="round" stroke-linejoin="round" stroke-width="5.000000"
	d="
M981.500000,352.000000 
	C980.017029,349.925873 977.589233,349.953400 975.489929,349.552643 
	C966.055908,347.751556 957.849854,342.763641 948.952820,339.634216 
	C943.006653,337.542725 936.980774,335.398712 930.518250,334.802338 
	C928.717468,334.636139 927.502747,335.357849 926.000000,335.500000 
"/>
<path fill="none" opacity="1.000000" stroke="#000000" stroke-linecap="round" stroke-linejoin="round" stroke-width="5.000000"
	d="
M482.500000,505.000000 
	C488.000000,507.549835 493.731567,505.935760 498.943268,504.750549 
	C505.967712,503.153107 513.190979,501.475220 519.515320,497.524567 
	C522.787170,495.480743 526.289185,493.886475 528.072815,490.033691 
	C528.948303,488.142487 530.788208,486.940155 532.997375,486.487274 
	C542.770203,484.483765 551.332336,479.425201 559.838501,474.708679 
	C563.503296,472.676544 567.347839,470.853363 570.813843,468.700348 
	C575.707397,465.660553 580.308655,461.263702 582.408447,455.466827 
	C583.949219,451.213013 578.820312,444.248108 572.980774,443.707947 
	C567.153198,443.168854 561.806335,440.778381 556.001038,440.479919 
	C543.114197,439.817444 530.486389,441.557739 518.030396,444.623596 
	C516.825989,444.920044 514.863892,445.563416 514.500000,447.500000 
"/>
<path fill="none" opacity="1.000000" stroke="#000000" stroke-linecap="round" stroke-linejoin="round" stroke-width="5.000000"
	d="
M377.000000,601.000000 
	C379.439026,605.623962 384.537476,605.887695 388.509796,607.981445 
	C392.465118,610.066223 396.806854,611.560120 400.435944,614.091797 
	C407.935394,619.323425 413.560791,625.684448 410.596954,636.027771 
	C410.079956,637.831848 410.833344,640.000000 411.000031,642.000000 
"/>
<path fill="none" opacity="1.000000" stroke="#000000" stroke-linecap="round" stroke-linejoin="round" stroke-width="6.000000"
	d="
M672.500000,215.500000 
	C657.613525,222.777710 642.155640,228.629700 626.514648,234.042404 
	C624.408020,234.771454 622.500000,234.430145 620.500000,234.000000 
"/>
<path fill="none" opacity="1.000000" stroke="#000000" stroke-linecap="round" stroke-linejoin="round" stroke-width="6.000000"
	d="
M923.000000,438.000000 
	C921.731628,434.843384 918.917542,434.047241 915.998047,433.510773 
	C904.235474,431.349548 892.560791,428.632660 880.501221,428.427490 
	C877.876282,428.382874 875.579895,427.688965 872.880371,429.299438 
	C870.931824,430.461823 868.161865,427.619232 865.500000,428.500000 
"/>
<path fill="none" opacity="1.000000" stroke="#000000" stroke-linecap="round" stroke-linejoin="round" stroke-width="5.000000"
	d="
M640.000000,168.000000 
	C642.719910,169.356476 643.921265,171.948685 644.968689,174.512787 
	C650.539246,188.149582 659.019836,199.816223 668.983765,210.515137 
	C670.434265,212.072647 671.666687,213.833328 673.000000,215.500000 
"/>
<path fill="none" opacity="1.000000" stroke="#000000" stroke-linecap="round" stroke-linejoin="round" stroke-width="5.000000"
	d="
M504.000000,451.000000 
	C506.010986,453.222534 508.911224,453.176849 511.477264,454.065643 
	C518.117310,456.365540 524.365662,459.557068 530.531616,462.942383 
	C533.853760,464.766357 537.394775,466.374664 541.029358,467.395538 
	C544.729980,468.434937 548.376282,469.518005 552.587708,467.703522 
	C556.256958,466.122589 559.972778,468.415070 563.000000,471.000000 
"/>
<path fill="none" opacity="1.000000" stroke="#000000" stroke-linecap="round" stroke-linejoin="round" stroke-width="6.000000"
	d="
M528.000000,488.500000 
	C513.278137,484.106323 500.127777,486.899567 488.479767,496.976593 
	C484.991852,499.994080 481.149841,503.193146 478.857452,506.731567 
	C475.905304,511.288330 471.709473,515.604736 471.000000,521.500000 
"/>
<path fill="none" opacity="1.000000" stroke="#000000" stroke-linecap="round" stroke-linejoin="round" stroke-width="5.000000"
	d="
M676.500000,534.500000 
	C681.688660,533.161194 684.391907,538.726257 689.000000,539.000000 
	C692.743958,545.230774 699.587524,546.471680 705.538513,548.905884 
	C713.476135,552.152771 721.839722,553.944885 730.499817,554.018066 
	C732.508545,554.035034 734.434387,553.981689 736.000000,552.500000 
"/>
<path fill="none" opacity="1.000000" stroke="#000000" stroke-linecap="round" stroke-linejoin="round" stroke-width="6.000000"
	d="
M1108.500000,568.500000 
	C1108.234253,565.056274 1104.798950,566.622986 1104.038818,566.743958 
	C1097.158936,567.837891 1090.428711,569.656982 1083.990601,572.478455 
	C1068.520386,579.257874 1052.213623,581.902649 1035.520874,580.284180 
	C1028.063721,579.561096 1020.869446,576.351013 1013.485718,574.558960 
	C1009.423401,573.573120 1005.236145,572.842224 1001.000000,573.750000 
"/>
<path fill="none" opacity="1.000000" stroke="#000000" stroke-linecap="round" stroke-linejoin="round" stroke-width="5.000000"
	d="
M411.000000,791.000000 
	C412.770477,792.858398 415.026459,793.371521 417.433136,794.195312 
	C428.228577,797.890564 439.486877,799.388306 450.505188,801.977905 
	C452.611267,802.472839 454.485626,803.066101 455.000000,805.500000 
"/>
<path fill="none" opacity="1.000000" stroke="#000000" stroke-linecap="round" stroke-linejoin="round" stroke-width="5.000000"
	d="
M407.500000,501.500000 
	C411.149597,505.829224 409.483124,510.773621 408.952972,515.494690 
	C408.081116,523.258484 405.956360,530.697876 402.531342,537.765198 
	C401.162567,540.589539 401.000427,543.583313 402.500000,546.500000 
"/>
<path fill="none" opacity="1.000000" stroke="#000000" stroke-linecap="round" stroke-linejoin="round" stroke-width="6.000000"
	d="
M963.000000,635.000000 
	C960.755371,639.216431 956.394226,640.469299 952.461548,641.893921 
	C946.237061,644.148682 940.055847,647.257263 932.975098,644.565491 
	C928.179382,642.742432 923.484497,641.013794 920.500000,636.500000 
"/>
<path fill="none" opacity="1.000000" stroke="#000000" stroke-linecap="round" stroke-linejoin="round" stroke-width="5.000000"
	d="
M657.000000,558.000000 
	C660.026123,558.063293 661.979797,556.050964 663.424744,553.948303 
	C666.266296,549.813416 669.434265,545.952393 672.461792,541.970947 
	C677.030273,535.962708 676.558105,531.621826 670.987610,527.014954 
	C661.533508,519.196228 650.397705,514.558777 638.964478,510.602661 
	C637.727905,510.174713 636.000000,511.166656 634.500000,511.499969 
"/>
<path fill="none" opacity="1.000000" stroke="#000000" stroke-linecap="round" stroke-linejoin="round" stroke-width="5.000000"
	d="
M631.500000,509.750031 
	C632.333313,510.166687 633.757324,510.428741 633.912842,511.022827 
	C637.111023,523.241577 648.535034,525.809448 657.592407,530.833374 
	C662.575989,533.597717 668.500000,534.666687 674.000000,536.500000 
"/>
<path fill="none" opacity="1.000000" stroke="#000000" stroke-linecap="round" stroke-linejoin="round" stroke-width="10.000000"
	d="
M887.500000,286.500000 
	C894.220032,299.227783 898.642944,313.201965 908.031372,324.473846 
	C909.177795,325.850189 909.696594,327.338531 910.000000,329.000000 
"/>
<path fill="none" opacity="1.000000" stroke="#000000" stroke-linecap="round" stroke-linejoin="round" stroke-width="6.000000"
	d="
M494.500000,670.500000 
	C484.554413,678.389954 472.647949,682.920288 460.861542,685.963867 
	C452.115082,688.222534 445.242004,692.951721 437.499176,696.498169 
	C433.430542,698.361755 429.869415,701.238831 425.500000,702.500000 
"/>
<path fill="none" opacity="1.000000" stroke="#000000" stroke-linecap="round" stroke-linejoin="round" stroke-width="5.000000"
	d="
M1161.000000,393.000000 
	C1168.217896,398.465485 1177.246948,400.150208 1185.001465,404.497314 
	C1189.758667,407.164062 1195.366577,408.042969 1199.750000,411.500000 
"/>
<path fill="none" opacity="1.000000" stroke="#000000" stroke-linecap="round" stroke-linejoin="round" stroke-width="5.000000"
	d="
M1043.500000,151.000000 
	C1050.977173,164.420441 1063.588623,171.210770 1076.979248,177.047592 
	C1078.466064,177.695648 1079.666626,179.000015 1081.000000,180.000015 
"/>
<path fill="none" opacity="1.000000" stroke="#000000" stroke-linecap="round" stroke-linejoin="round" stroke-width="5.000000"
	d="
M741.500000,337.500000 
	C740.987305,339.954193 741.752197,342.385040 742.617065,344.450989 
	C744.574890,349.127716 742.882996,352.680450 739.976013,355.978882 
	C735.584106,360.962158 730.272400,364.716919 723.988586,366.968079 
	C722.767334,367.405579 721.840027,368.093384 721.000000,369.000000 
"/>
<path fill="none" opacity="1.000000" stroke="#000000" stroke-linecap="round" stroke-linejoin="round" stroke-width="5.000000"
	d="
M1325.500000,257.000000 
	C1334.822144,264.560455 1345.942261,268.491913 1357.035278,272.399933 
	C1358.614014,272.956116 1360.666626,272.166687 1362.500000,272.000031 
"/>
<path fill="none" opacity="1.000000" stroke="#000000" stroke-linecap="round" stroke-linejoin="round" stroke-width="5.000000"
	d="
M1362.500000,231.500000 
	C1358.562988,231.563004 1356.295288,233.286743 1356.496216,237.500183 
	C1356.583252,239.324036 1355.450684,240.557144 1354.584351,242.048965 
	C1349.851074,250.199402 1350.365845,256.256958 1356.541138,263.464813 
	C1361.236450,268.945404 1365.797607,274.861664 1374.000000,275.250000 
"/>
<path fill="none" opacity="1.000000" stroke="#000000" stroke-linecap="round" stroke-linejoin="round" stroke-width="5.000000"
	d="
M1160.250000,392.500000 
	C1161.004761,389.273041 1163.567139,389.389069 1165.999023,389.518616 
	C1178.204590,390.168762 1189.751099,392.789795 1198.957886,401.544281 
	C1201.358032,403.826477 1204.578247,405.649658 1205.000000,409.500000 
"/>
<path fill="none" opacity="1.000000" stroke="#000000" stroke-linecap="round" stroke-linejoin="round" stroke-width="11.000000"
	d="
M873.000000,236.000000 
	C869.087219,240.522690 863.454529,242.950378 859.445862,247.451782 
	C850.251160,257.776703 846.389587,270.029755 845.483154,283.498871 
	C845.448914,284.007782 845.166687,284.500000 845.000000,285.000000 
"/>
<path fill="none" opacity="1.000000" stroke="#000000" stroke-linecap="round" stroke-linejoin="round" stroke-width="6.000000"
	d="
M1084.000000,178.500000 
	C1070.604370,188.120667 1057.158325,197.680405 1046.000000,210.000000 
"/>
<path fill="none" opacity="1.000000" stroke="#000000" stroke-linecap="round" stroke-linejoin="round" stroke-width="6.000000"
	d="
M719.500000,438.500000 
	C715.281677,447.027130 708.458923,453.329498 701.486389,459.484558 
	C698.736267,461.912170 695.878723,464.225006 692.981873,466.476746 
	C691.411133,467.697662 689.750610,469.030060 687.500000,468.000000 
"/>
<path fill="none" opacity="1.000000" stroke="#000000" stroke-linecap="round" stroke-linejoin="round" stroke-width="6.000000"
	d="
M869.000000,528.500000 
	C860.154846,534.649780 850.224609,539.200867 842.456238,546.956177 
	C838.628052,550.777832 834.916748,554.600037 832.500000,559.500000 
"/>
<path fill="none" opacity="1.000000" stroke="#000000" stroke-linecap="round" stroke-linejoin="round" stroke-width="5.000000"
	d="
M834.000000,508.000000 
	C834.833618,511.899719 837.981995,513.620117 840.994446,515.508850 
	C848.927490,520.482727 856.833313,525.500000 864.750000,530.500000 
"/>
<path fill="none" opacity="1.000000" stroke="#000000" stroke-linecap="round" stroke-linejoin="round" stroke-width="5.000000"
	d="
M435.500000,644.500000 
	C435.884033,647.653320 438.298401,649.187744 440.473022,651.031799 
	C446.237274,655.919983 452.721863,660.041748 456.551514,666.971497 
	C459.381134,672.091614 459.532898,676.771240 455.947052,680.954590 
	C454.487274,682.657654 453.973724,684.414673 454.000000,686.500000 
"/>
<path fill="none" opacity="1.000000" stroke="#000000" stroke-linecap="round" stroke-linejoin="round" stroke-width="5.000000"
	d="
M806.500000,584.500000 
	C812.471680,584.424377 818.656311,587.065186 821.117126,591.226440 
	C826.507263,600.341003 834.521729,608.330444 835.907166,619.511475 
	C836.146423,621.442200 836.981934,623.005188 837.500000,624.750000 
"/>
<path fill="none" opacity="1.000000" stroke="#000000" stroke-linecap="round" stroke-linejoin="round" stroke-width="6.000000"
	d="
M1031.000000,580.000000 
	C1030.500000,581.333313 1030.277710,582.878113 1029.451294,583.962891 
	C1026.092163,588.373047 1025.230469,592.738281 1026.222900,598.547363 
	C1027.817993,607.883911 1023.947205,616.374207 1018.494141,623.995789 
	C1017.830505,624.923340 1016.742676,625.621338 1017.000000,627.000000 
"/>
<path fill="none" opacity="1.000000" stroke="#000000" stroke-linecap="round" stroke-linejoin="round" stroke-width="5.000000"
	d="
M921.000000,335.500000 
	C915.511597,341.023956 911.674927,347.576111 909.565247,355.018494 
	C908.267395,359.596863 904.666992,362.565430 902.500000,366.500000 
"/>
<path fill="none" opacity="1.000000" stroke="#000000" stroke-linecap="round" stroke-linejoin="round" stroke-width="6.000000"
	d="
M440.500000,595.500000 
	C434.815674,595.789185 430.059509,598.926758 425.644379,601.727600 
	C420.095367,605.247742 414.687042,604.760498 409.006256,603.955750 
	C400.815094,602.795471 392.654053,601.401428 384.519257,599.895935 
	C383.694702,599.743225 382.758087,599.366089 382.012634,599.550964 
	C378.263519,600.480652 374.639618,599.761536 371.000000,599.000000 
"/>
<path fill="none" opacity="1.000000" stroke="#000000" stroke-linecap="round" stroke-linejoin="round" stroke-width="6.000000"
	d="
M869.000000,150.500000 
	C869.459595,153.583847 868.482605,155.973007 866.031433,158.037308 
	C860.772278,162.466354 855.883118,167.315338 850.056946,171.087967 
	C848.408203,172.155594 846.973206,172.806030 845.014832,173.098969 
	C841.103943,173.683975 838.978455,176.720215 837.250000,180.000000 
"/>
<path fill="none" opacity="1.000000" stroke="#000000" stroke-linecap="round" stroke-linejoin="round" stroke-width="5.000000"
	d="
M700.000000,439.000000 
	C698.845154,444.848907 695.975952,449.931854 693.035645,455.020599 
	C690.647156,459.154236 687.006897,462.442688 686.634705,467.975433 
	C686.477600,470.311768 683.731873,474.164856 679.500000,474.000000 
"/>
<path fill="none" opacity="1.000000" stroke="#000000" stroke-linecap="round" stroke-linejoin="round" stroke-width="5.000000"
	d="
M851.000000,611.000000 
	C844.037476,603.957886 836.115356,598.118347 828.041077,592.441528 
	C826.243958,591.178040 824.753418,591.299438 823.000000,592.000000 
"/>
<path fill="none" opacity="1.000000" stroke="#000000" stroke-linecap="round" stroke-linejoin="round" stroke-width="5.000000"
	d="
M1021.500000,470.000000 
	C1017.774963,472.754333 1014.047607,475.465240 1011.476379,479.484894 
	C1007.749939,485.310608 1007.489990,491.585449 1011.000000,496.000000 
"/>
<path fill="none" opacity="1.000000" stroke="#000000" stroke-linecap="round" stroke-linejoin="round" stroke-width="7.000000"
	d="
M692.000000,369.000000 
	C700.976562,372.280884 710.132324,373.097168 719.500000,371.000000 
"/>
<path fill="none" opacity="1.000000" stroke="#000000" stroke-linecap="round" stroke-linejoin="round" stroke-width="5.000000"
	d="
M870.500000,148.000000 
	C870.241089,145.793976 868.576660,144.158508 866.958801,143.624893 
	C860.828186,141.602921 854.940491,138.143692 847.985168,139.942581 
	C845.307861,140.635010 842.937378,138.840561 840.514221,137.960831 
	C836.793396,136.609955 833.166687,135.000000 829.500000,133.500000 
"/>
<path fill="none" opacity="1.000000" stroke="#000000" stroke-linecap="round" stroke-linejoin="round" stroke-width="5.000000"
	d="
M862.500000,150.500000 
	C860.228027,155.122757 855.099548,156.717712 851.948364,160.456467 
	C850.062927,162.693497 847.665588,164.498779 845.500366,166.500412 
	C843.576416,168.278946 843.092224,170.502731 843.500000,173.000000 
"/>
<path fill="none" opacity="1.000000" stroke="#000000" stroke-linecap="round" stroke-linejoin="round" stroke-width="6.000000"
	d="
M873.000000,430.000000 
	C876.378784,435.343475 882.697144,435.977966 887.575989,438.871948 
	C897.499878,444.758514 899.201233,454.913635 896.436768,463.479584 
	C895.320923,466.936920 893.556885,470.193817 891.983032,473.491913 
	C890.593262,476.404266 889.966003,479.348083 891.000000,482.500000 
"/>
<path fill="none" opacity="1.000000" stroke="#000000" stroke-linecap="round" stroke-linejoin="round" stroke-width="6.000000"
	d="
M733.500000,330.500000 
	C733.666687,330.500000 733.885437,330.430054 733.992615,330.509949 
	C744.746155,338.523132 756.781372,344.922119 765.500000,355.500000 
"/>
<path fill="none" opacity="1.000000" stroke="#000000" stroke-linecap="round" stroke-linejoin="round" stroke-width="6.000000"
	d="
M1262.500000,312.500000 
	C1263.103149,315.627716 1265.745728,316.867249 1267.989014,318.514923 
	C1270.564819,320.406982 1274.536255,322.072479 1274.730957,325.017761 
	C1275.089111,330.440338 1277.351196,336.317078 1273.862549,341.405792 
	C1272.880737,342.837982 1272.516968,345.117432 1272.679199,345.395416 
	C1274.714966,348.884003 1272.733154,351.384277 1271.000000,354.000000 
"/>
<path fill="none" opacity="1.000000" stroke="#000000" stroke-linecap="round" stroke-linejoin="round" stroke-width="6.000000"
	d="
M667.500000,418.000000 
	C672.432983,418.964966 676.803467,420.663666 680.069336,424.947144 
	C683.844238,429.898224 690.295837,431.270142 694.947021,435.064911 
	C698.866943,438.263000 703.419983,438.611206 708.004639,438.934265 
	C711.018738,439.146667 713.862366,437.998688 716.500000,436.500000 
"/>
<path fill="none" opacity="1.000000" stroke="#000000" stroke-linecap="round" stroke-linejoin="round" stroke-width="5.000000"
	d="
M671.000000,537.000000 
	C666.362183,539.970886 662.099792,543.286560 658.941589,547.960510 
	C657.043335,550.769897 655.110962,553.672180 656.189880,556.937256 
	C656.737915,558.595825 655.587891,559.546204 655.342957,559.887207 
	C652.923096,563.256226 650.798889,566.776611 649.014343,570.506836 
	C648.250122,572.104248 646.915344,572.080200 645.500000,572.000000 
"/>
<path fill="none" opacity="1.000000" stroke="#000000" stroke-linecap="round" stroke-linejoin="round" stroke-width="5.000000"
	d="
M551.000000,713.250000 
	C553.696533,714.079834 556.426575,714.615356 559.082581,715.817505 
	C561.522583,716.921997 564.388367,718.723145 567.572144,716.608643 
	C568.613037,715.917358 570.613892,716.133545 571.981689,716.558838 
	C581.768127,719.601074 591.912354,720.099487 602.002869,720.966980 
	C603.813110,721.122620 605.288513,721.684143 606.500000,723.000000 
"/>
<path fill="none" opacity="1.000000" stroke="#000000" stroke-linecap="round" stroke-linejoin="round" stroke-width="5.000000"
	d="
M569.500000,444.500000 
	C570.301636,450.073517 567.726318,454.246948 564.014038,458.013855 
	C561.336304,460.730957 558.081543,463.026367 557.000000,467.000000 
"/>
<path fill="none" opacity="1.000000" stroke="#000000" stroke-linecap="round" stroke-linejoin="round" stroke-width="5.000000"
	d="
M1030.000000,474.500000 
	C1029.356689,476.718689 1027.682861,478.298431 1025.954834,479.431183 
	C1019.155273,483.888611 1016.252380,491.682556 1010.547852,497.050873 
	C1010.259338,497.322418 1010.666687,498.333344 1010.750000,499.000000 
"/>
<path fill="none" opacity="1.000000" stroke="#000000" stroke-linecap="round" stroke-linejoin="round" stroke-width="5.000000"
	d="
M910.500000,330.000000 
	C909.420715,335.289276 904.332581,338.341095 902.991333,343.497742 
	C901.221985,350.300293 898.553101,357.066345 902.500000,364.000000 
"/>
<path fill="none" opacity="1.000000" stroke="#000000" stroke-linecap="round" stroke-linejoin="round" stroke-width="5.000000"
	d="
M1024.500000,594.500061 
	C1023.833313,594.666687 1022.837341,594.609192 1022.548767,595.033264 
	C1017.118347,603.010742 1014.189758,611.756592 1015.121033,621.488403 
	C1015.204163,622.356628 1015.447021,624.090881 1017.000000,624.500000 
"/>
<path fill="none" opacity="1.000000" stroke="#000000" stroke-linecap="round" stroke-linejoin="round" stroke-width="6.000000"
	d="
M1047.500000,359.500000 
	C1047.488037,362.857300 1050.036987,361.249542 1051.505737,361.459595 
	C1056.297729,362.145203 1061.469849,361.590424 1065.000000,366.000000 
"/>
<path fill="none" opacity="1.000000" stroke="#000000" stroke-linecap="round" stroke-linejoin="round" stroke-width="5.000000"
	d="
M1292.000000,334.000000 
	C1285.881470,338.857849 1280.786255,344.943542 1274.000000,349.000000 
"/>
<path fill="none" opacity="1.000000" stroke="#000000" stroke-linecap="round" stroke-linejoin="round" stroke-width="5.000000"
	d="
M422.000000,605.000000 
	C423.396790,608.321472 426.466644,609.403442 429.520203,609.866760 
	C431.306091,610.137634 432.439575,610.787537 433.500000,612.000000 
"/>
<path fill="none" opacity="1.000000" stroke="#000000" stroke-linecap="round" stroke-linejoin="round" stroke-width="4.000000"
	d="
M1287.000000,328.500000 
	C1284.892944,328.428101 1282.808716,329.118073 1280.900757,327.093536 
	C1279.652344,325.768951 1277.970459,323.914612 1275.500000,325.000000 
"/>
<path fill="none" opacity="1.000000" stroke="#000000" stroke-linecap="round" stroke-linejoin="round" stroke-width="3.000000"
	d="
M1128.500000,543.500000 
	C1125.192505,544.183899 1121.853882,544.244812 1118.500000,544.000000 
"/>
</svg>